<svg xmlns="http://www.w3.org/2000/svg" viewBox="0 0 800 1000" preserveAspectRatio="xMidYMid slice" fill="none" stroke="#B9CF9F" stroke-width="1.3" stroke-linecap="round" stroke-linejoin="round" aria-hidden="true"><path d="M90 900H710" stroke-width="1.4"/><path d="M400 900C390 760 300 620 210 470" stroke-width="1.5"/><path d="M378.8 794.8L371.7 791.9M371.7 791.9C370.8 773.4 345.1 764.6 324.7 767.5C335 787.8 356.2 803.3 371.7 791.9"/><path d="M371.7 791.9Q350.4 781.3 332 771.9" stroke-width="0.9" opacity=".75"/><path d="M361.2 746.9L363.6 741.3M363.6 741.3C382.6 739.5 387.7 713.6 380 691C364.5 700.9 352.5 725.9 363.6 741.3"/><path d="M363.6 741.3Q372.3 719.2 377.8 699.3" stroke-width="0.9" opacity=".75"/><path d="M339.9 698.6L332.6 695.5M332.6 695.5C331.8 681.3 312.8 673.7 297.6 676.2C305.7 691.6 320.8 703.6 332.6 695.5"/><path d="M332.6 695.5Q316.7 687.1 303 679.7" stroke-width="0.9" opacity=".75"/><path d="M315.2 650.1L316.6 645.9M316.6 645.9C333.3 644.1 335.3 620.3 328.7 602C315.9 611.9 305.3 633.3 316.6 645.9"/><path d="M316.6 645.9Q323.1 626.5 327.1 609.2" stroke-width="0.9" opacity=".75"/><path d="M288 601L279.9 599.6M279.9 599.6C276.3 586.5 259 586.4 245.4 591.6C254 602.8 271.7 609.7 279.9 599.6"/><path d="M279.9 599.6Q264.3 596 250.8 593.1" stroke-width="0.9" opacity=".75"/><path d="M258.9 551.5L260.7 544.1M260.7 544.1C275.2 540.3 275.7 521.3 268 503.5C256.6 512.8 249.4 534.2 260.7 544.1"/><path d="M260.7 544.1Q264.9 526 267.1 510.1" stroke-width="0.9" opacity=".75"/><path d="M228.9 501.3L223.9 500.3M223.9 500.3C220.3 487.1 201.6 485.1 186.7 490.1C196.3 502.9 214.9 510.4 223.9 500.3"/><path d="M223.9 500.3Q207.2 495.8 192.6 492" stroke-width="0.9" opacity=".75"/><path d="M210 470C217.1 459.3 206 445.4 192.9 438.7C191.1 451.8 197.5 470.3 210 470"/><path d="M210 470Q202.3 455.9 195.4 443.8" stroke-width="0.9" opacity=".75"/><path d="M400 900C410 720 420 560 400 330" stroke-width="1.5"/><path d="M407.1 767.3L403.2 762.6M403.2 762.6C411.9 744.9 391.8 722.8 370.4 717.3C369.6 738.9 383.5 765.2 403.2 762.6"/><path d="M403.2 762.6Q388.4 742.2 375.4 724.8" stroke-width="0.9" opacity=".75"/><path d="M409.4 707.4L414 702.5M414 702.5C430.4 707.5 441.4 687.4 443.4 667C425.4 671.9 409.8 686.7 414 702.5"/><path d="M414 702.5Q428.1 687.3 438.9 672.9" stroke-width="0.9" opacity=".75"/><path d="M411.1 646.5L408.3 643.1M408.3 643.1C416 626.1 398.7 608.9 380 601.7C378.9 621.4 391.4 645.7 408.3 643.1"/><path d="M408.3 643.1Q395.3 624.7 384.2 608.6" stroke-width="0.9" opacity=".75"/><path d="M411.5 583.8L414.2 580.6M414.2 580.6C429.4 584.3 442 562.9 441 543.5C425.9 548 408.8 565 414.2 580.6"/><path d="M414.2 580.6Q427.3 564.8 437.1 549.7" stroke-width="0.9" opacity=".75"/><path d="M410.7 518.6L407 514.6M407 514.6C413.2 498.5 394.3 483.7 376 479.1C377.7 497.6 390.6 518 407 514.6"/><path d="M407 514.6Q393.1 498.6 380.8 485" stroke-width="0.9" opacity=".75"/><path d="M408.1 449.9L414 444M414 444C427.4 448 438.9 429.8 439.7 413.6C424.8 417.5 410.8 430.3 414 444"/><path d="M414 444Q426.4 431 435.9 418.7" stroke-width="0.9" opacity=".75"/><path d="M403.8 377.3L399.9 374.2M399.9 374.2C402.1 362.2 387.2 351.6 374.1 350.6C376.3 364.1 388.3 379.2 399.9 374.2"/><path d="M399.9 374.2Q388.1 363.8 378 354.7" stroke-width="0.9" opacity=".75"/><path d="M400 330C410.8 323.1 406.7 306.3 398.3 294.3C390.2 305.4 389.4 324.4 400 330"/><path d="M400 330Q399.2 313.9 398.4 300" stroke-width="0.9" opacity=".75"/><path d="M400 900C420 760 520 620 600 460" stroke-width="1.5"/><path d="M428.5 794.7L427.1 790.6M427.1 790.6C440.1 778.3 429.7 757.3 414.2 744.4C407.4 762.2 411.2 787.3 427.1 790.6"/><path d="M427.1 790.6Q421.2 769.9 415.9 751.9" stroke-width="0.9" opacity=".75"/><path d="M448.7 746.4L454.2 745.2M454.2 745.2C464.2 757.5 482.5 747.8 495.3 733.1C481.5 727.2 458.6 731 454.2 745.2"/><path d="M454.2 745.2Q472.9 740.8 488.8 735.3" stroke-width="0.9" opacity=".75"/><path d="M472.4 697.6L470.5 689.2M470.5 689.2C485.2 677.8 476.7 654.6 463.4 641.2C453.4 658.9 454.5 683.1 470.5 689.2"/><path d="M470.5 689.2Q467.1 667.6 464.1 649" stroke-width="0.9" opacity=".75"/><path d="M498.4 648L506.5 646.6M506.5 646.6C516.8 660.6 539.9 650.4 551.2 634.7C536 628.6 511.8 631.4 506.5 646.6"/><path d="M506.5 646.6Q526.8 642.6 544.1 637.1" stroke-width="0.9" opacity=".75"/><path d="M526.2 597.6L524.4 590.9M524.4 590.9C535.6 581.8 527.7 561 516.1 551.5C509.3 565.1 510.8 587 524.4 590.9"/><path d="M524.4 590.9Q520.6 573.2 517.2 557.9" stroke-width="0.9" opacity=".75"/><path d="M554.6 546L563.4 544.3M563.4 544.3C570.7 554.1 586.4 547.1 595.2 535.9C583.9 531.3 567.5 533.3 563.4 544.3"/><path d="M563.4 544.3Q577.9 541.3 590.2 537.5" stroke-width="0.9" opacity=".75"/><path d="M583 493.3L581.7 487.6M581.7 487.6C591 480.4 585.3 465.3 577.2 456.4C570.5 467.6 571.1 484.3 581.7 487.6"/><path d="M581.7 487.6Q579.4 473.6 577.6 461.5" stroke-width="0.9" opacity=".75"/><path d="M600 460C612.5 459.6 619.5 442.4 617.2 428.7C604.3 434.4 593.7 449.7 600 460"/><path d="M600 460Q607.8 445.9 614.3 433.6" stroke-width="0.9" opacity=".75"/><path d="M400 880C360 800 230 760 140 680" stroke-width="1.5"/><path d="M355.2 826.2L349.6 826.7M349.6 826.7C338.5 807.7 309.3 814 292.1 827.4C309.9 841.6 340.7 846 349.6 826.7"/><path d="M349.6 826.7Q323.8 827.4 301.4 827.8" stroke-width="0.9" opacity=".75"/><path d="M326.9 804.8L325.9 796.8M325.9 796.8C339 788.2 331.6 766 318.1 754C310.2 767.6 311.3 790.7 325.9 796.8"/><path d="M325.9 796.8Q323.2 777.4 319.6 760.8" stroke-width="0.9" opacity=".75"/><path d="M295.5 784.1L288.1 785.6M288.1 785.6C276.3 771 250.9 778.2 235.1 791.7C256.1 802.3 282.2 804.5 288.1 785.6"/><path d="M288.1 785.6Q264.3 788.8 243.7 791.2" stroke-width="0.9" opacity=".75"/><path d="M261.9 763.7L260.3 758.8M260.3 758.8C270.1 748.9 259.9 730.2 246.1 721.3C242.2 736.4 246.6 755.9 260.3 758.8"/><path d="M260.3 758.8Q254.6 741.7 248.5 727.3" stroke-width="0.9" opacity=".75"/><path d="M227.3 742.7L221 744.1M221 744.1C212.6 733.9 195.3 739.1 183.7 750.5C196.6 758.1 217.1 756.7 221 744.1"/><path d="M221 744.1Q204.2 747 189.7 749.7" stroke-width="0.9" opacity=".75"/><path d="M192.7 720.5L192.1 713.4M192.1 713.4C204.3 706.3 198.3 686.4 187 674C179.3 686.8 178.4 707.7 192.1 713.4"/><path d="M192.1 713.4Q190.7 695.6 188.1 680.3" stroke-width="0.9" opacity=".75"/><path d="M159.4 696.2L154.8 697M154.8 697C147.1 685.6 128.6 691.1 118 701.4C130.1 709 150.2 709.7 154.8 697"/><path d="M154.8 697Q138.3 698.9 124 700.9" stroke-width="0.9" opacity=".75"/><path d="M140 680C143.5 667.7 127.2 656.9 114.3 655.2C117.5 669.1 128.2 684 140 680"/><path d="M140 680Q128.4 668.8 118.3 659.3" stroke-width="0.9" opacity=".75"/><path d="M400 880C450 800 570 760 670 690" stroke-width="1.5"/><path d="M449.3 826.4L450.1 818.8M450.1 818.8C465.3 813.4 467.1 788.6 458.6 773.6C445.1 786.5 436.2 809.1 450.1 818.8"/><path d="M450.1 818.8Q453.7 798.4 456.8 780.8" stroke-width="0.9" opacity=".75"/><path d="M477.9 805.2L485.6 806.6M485.6 806.6C491.3 826.4 518 825 540.3 811.9C523.9 798.7 498.3 792.1 485.6 806.6"/><path d="M485.6 806.6Q509.9 810.6 531.4 811.6" stroke-width="0.9" opacity=".75"/><path d="M509.5 785.3L510.7 776.9M510.7 776.9C527.9 771 529.2 744.8 519.5 727.7C505.3 741.6 497.4 766.1 510.7 776.9"/><path d="M510.7 776.9Q514.7 754.8 517.9 735.5" stroke-width="0.9" opacity=".75"/><path d="M543.1 765.7L549.4 767.3M549.4 767.3C552.8 781.7 574.3 781.7 590.3 773.9C578.4 762.4 559.7 756.3 549.4 767.3"/><path d="M549.4 767.3Q567.5 771.4 583.6 773.3" stroke-width="0.9" opacity=".75"/><path d="M578.1 746.2L579.6 738.3M579.6 738.3C593.5 734.2 595.6 714 589.1 698.4C576 710 567.7 728.4 579.6 738.3"/><path d="M579.6 738.3Q583.8 720.4 587.3 704.7" stroke-width="0.9" opacity=".75"/><path d="M613.6 725.9L619.3 728.1M619.3 728.1C620.8 740.2 636.8 742.9 652.3 738.6C643.9 728.2 629.2 720.4 619.3 728.1"/><path d="M619.3 728.1Q633.9 733.5 646.9 737.1" stroke-width="0.9" opacity=".75"/><path d="M648.8 704.3L649.6 697.9M649.6 697.9C661.5 694.4 661.4 677 656.2 665.7C645.8 674.4 640.6 690.7 649.6 697.9"/><path d="M649.6 697.9Q652.4 683.4 654.9 670.8" stroke-width="0.9" opacity=".75"/><path d="M670 690C681 695.4 694.1 683.7 700.1 670.7C686 669.8 669.9 678 670 690"/><path d="M670 690Q683.5 681.3 695.1 673.6" stroke-width="0.9" opacity=".75"/><path d="M150 640Q170 330 400 300Q630 330 650 640" stroke-dasharray="2 12" opacity=".45"/></svg>
