<svg xmlns="http://www.w3.org/2000/svg" viewBox="0 0 400 600" fill="none" stroke="#B9CF9F" stroke-width="1.25" stroke-linecap="round" stroke-linejoin="round" aria-hidden="true"><path d="M210 595C150 430 285 230 228 40" stroke-width="1.5625"/><path d="M195.2 523.7L189.8 519.4M189.8 519.4C194 490.8 159.9 467.8 124.6 458.5C133 492 162.1 528.1 189.8 519.4"/><path d="M189.8 519.4Q160 492.5 134.5 468.9" stroke-width="0.9" opacity=".75"/><path d="M195.1 471.4L198.9 468.5M198.9 468.5C222.1 478 249.8 447.4 260 414.1C232.1 419.9 197.2 442.1 198.9 468.5"/><path d="M198.9 468.5Q227.7 445.7 250.7 423.4" stroke-width="0.9" opacity=".75"/><path d="M201.1 417.7L195.7 412M195.7 412C203.2 388.6 175.1 364.2 147.7 352.1C149.5 381.8 172.5 415.2 195.7 412"/><path d="M195.7 412Q173.5 385.5 154.8 362.2" stroke-width="0.9" opacity=".75"/><path d="M210.7 362.8L216.3 358.8M216.3 358.8C238.9 368 268.9 339.5 277.6 309.2C249.5 314.5 214.6 333.3 216.3 358.8"/><path d="M216.3 358.8Q245 338.1 268.1 317.7" stroke-width="0.9" opacity=".75"/><path d="M221.9 307L218.1 301.7M218.1 301.7C226.3 282.2 204.1 255.7 181.7 244C181.7 271.1 196.2 301.3 218.1 301.7"/><path d="M218.1 301.7Q201.5 275.9 187.1 253.5" stroke-width="0.9" opacity=".75"/><path d="M232.4 250.5L238.5 246M238.5 246C257 254.1 277.9 231.5 286.9 206.6C263.4 209.8 237.6 226.9 238.5 246"/><path d="M238.5 246Q261 229.1 279.4 213.1" stroke-width="0.9" opacity=".75"/><path d="M240 193.7L236 189.5M236 189.5C242.4 170.6 218.2 149.5 197.1 143.5C200.2 167.4 217 192 236 189.5"/><path d="M236 189.5Q218.4 168.8 203.1 151.1" stroke-width="0.9" opacity=".75"/><path d="M242.3 136.8L248.3 130.9M248.3 130.9C263.3 135 277 115.4 282.3 94.6C265.4 98.7 245.8 115.7 248.3 130.9"/><path d="M248.3 130.9Q264.2 115.2 277.1 100.6" stroke-width="0.9" opacity=".75"/><path d="M237.3 79.9L229.9 75.3M229.9 75.3C230.6 59.6 209 48 191 46C199 65.3 215.1 81.8 229.9 75.3"/><path d="M229.9 75.3Q212.1 62.5 197 51.1" stroke-width="0.9" opacity=".75"/><path d="M228 40C237 29.4 229.3 9.2 216.5 -4.8C211.2 10.4 214.6 34.9 228 40"/><path d="M228 40Q222.8 19.9 218.1 2.5" stroke-width="0.9" opacity=".75"/></svg>
