<svg xmlns="http://www.w3.org/2000/svg" viewBox="0 0 480 360" role="img" aria-label="Illustration: ruhige Grabstätte mit Olivenzweig"><rect width="480" height="360" fill="#E7E3DA"/><rect y="276" width="480" height="84" fill="#D6D1C6"/><path d="M168 286V150A72 72 0 0 1 312 150V286Z" fill="#C9C4B8"/><path d="M180 286V152A60 60 0 0 1 300 152V286" fill="none" stroke="#A9A397" stroke-width="2"/><circle cx="297.8" cy="300.3" r="3.5" fill="#BEB8AC"/><circle cx="279.3" cy="317.4" r="2.4" fill="#CFC9BD"/><circle cx="173" cy="327.2" r="2.8" fill="#B1AB9F"/><circle cx="224.8" cy="341" r="3.7" fill="#BEB8AC"/><circle cx="249" cy="320.3" r="4.1" fill="#CFC9BD"/><circle cx="245.8" cy="341.7" r="3.1" fill="#B1AB9F"/><circle cx="277.3" cy="320.2" r="3.8" fill="#BEB8AC"/><circle cx="153.6" cy="322.9" r="3.6" fill="#CFC9BD"/><circle cx="145.3" cy="292.3" r="2.7" fill="#B1AB9F"/><circle cx="279.6" cy="299.5" r="4.2" fill="#BEB8AC"/><circle cx="139.4" cy="311.5" r="2.4" fill="#CFC9BD"/><circle cx="185.5" cy="314.4" r="2.5" fill="#B1AB9F"/><circle cx="250.9" cy="305" r="3.2" fill="#BEB8AC"/><circle cx="260.1" cy="309.2" r="4.3" fill="#CFC9BD"/><circle cx="312.7" cy="311.5" r="3.9" fill="#B1AB9F"/><circle cx="235" cy="297.6" r="4.2" fill="#BEB8AC"/><circle cx="260.1" cy="303.3" r="3.4" fill="#CFC9BD"/><circle cx="175.3" cy="313.5" r="3.8" fill="#B1AB9F"/><circle cx="320.1" cy="307.2" r="2.5" fill="#BEB8AC"/><circle cx="180.5" cy="303.1" r="3.8" fill="#CFC9BD"/><circle cx="176.1" cy="321" r="2.4" fill="#B1AB9F"/><circle cx="302.2" cy="309.9" r="2.4" fill="#BEB8AC"/><circle cx="260.5" cy="301.5" r="3" fill="#CFC9BD"/><circle cx="218.2" cy="307.3" r="4.1" fill="#B1AB9F"/><circle cx="196.7" cy="336.8" r="4" fill="#BEB8AC"/><circle cx="252.4" cy="337.1" r="2.7" fill="#CFC9BD"/><circle cx="301.2" cy="328.4" r="3.2" fill="#B1AB9F"/><circle cx="303.1" cy="316.6" r="3.7" fill="#BEB8AC"/><circle cx="215.6" cy="342.9" r="2.9" fill="#CFC9BD"/><circle cx="155.6" cy="306.8" r="4.1" fill="#B1AB9F"/><circle cx="213.7" cy="292.6" r="3" fill="#BEB8AC"/><circle cx="153.9" cy="322.8" r="4.2" fill="#CFC9BD"/><circle cx="302.1" cy="342.1" r="2.7" fill="#B1AB9F"/><circle cx="219.3" cy="300.9" r="3.6" fill="#BEB8AC"/><circle cx="328.8" cy="296.4" r="2.9" fill="#CFC9BD"/><circle cx="313.7" cy="340.5" r="4.2" fill="#B1AB9F"/><circle cx="319.1" cy="340.4" r="3.8" fill="#BEB8AC"/><circle cx="208.6" cy="314.7" r="4.1" fill="#CFC9BD"/><circle cx="261.8" cy="325.3" r="4" fill="#B1AB9F"/><circle cx="159.4" cy="333" r="3.9" fill="#BEB8AC"/><circle cx="188.6" cy="320.1" r="3.7" fill="#CFC9BD"/><circle cx="186.6" cy="325.2" r="2.6" fill="#B1AB9F"/><circle cx="190.7" cy="327.1" r="3.6" fill="#BEB8AC"/><circle cx="151.6" cy="330.3" r="2.1" fill="#CFC9BD"/><circle cx="263.4" cy="321.5" r="4.2" fill="#B1AB9F"/><circle cx="267.8" cy="296.5" r="2" fill="#BEB8AC"/><circle cx="151.2" cy="319.5" r="4.1" fill="#CFC9BD"/><circle cx="326" cy="306.4" r="4.3" fill="#B1AB9F"/><circle cx="230.9" cy="327.5" r="3.4" fill="#BEB8AC"/><circle cx="138.5" cy="299" r="3.8" fill="#CFC9BD"/><circle cx="325.7" cy="307.6" r="3.5" fill="#B1AB9F"/><circle cx="135.5" cy="325.4" r="4.2" fill="#BEB8AC"/><circle cx="287.8" cy="326.3" r="2.2" fill="#CFC9BD"/><circle cx="140.5" cy="318.5" r="3" fill="#B1AB9F"/><circle cx="244" cy="334.9" r="4.2" fill="#BEB8AC"/><circle cx="249.4" cy="338.6" r="4.1" fill="#CFC9BD"/><circle cx="328.7" cy="322.2" r="2" fill="#B1AB9F"/><circle cx="247.6" cy="296" r="3.5" fill="#BEB8AC"/><circle cx="190.8" cy="327" r="3.8" fill="#CFC9BD"/><circle cx="282.3" cy="329" r="3.9" fill="#B1AB9F"/><path d="M118 330C170 300 230 286 300 252" stroke="#1E3A2B" stroke-width="3" fill="none" stroke-linecap="round"/><path fill="#3E5C47" d="M145.3 318.3Q164.5 314.4 163.9 294.8Q144.8 298.7 145.3 318.3Z"/><path fill="#4F6E57" d="M167.1 308.9Q177.7 292.4 163.3 279.2Q152.7 295.7 167.1 308.9Z"/><path fill="#3E5C47" d="M189 299.6Q208.2 295.7 207.6 276.1Q188.4 280 189 299.6Z"/><path fill="#4F6E57" d="M210.8 290.2Q221.4 273.7 207 260.5Q196.4 277 210.8 290.2Z"/><path fill="#3E5C47" d="M232.7 280.9Q251.9 276.9 251.3 257.4Q232.1 261.3 232.7 280.9Z"/><path fill="#4F6E57" d="M254.5 271.5Q265.1 255 250.6 241.8Q240.1 258.2 254.5 271.5Z"/><path fill="#3E5C47" d="M276.3 262.1Q295.5 258.2 295 238.6Q275.8 242.6 276.3 262.1Z"/></svg>
